<svg width="214" height="13" viewBox="0 0 214 13" fill="none" xmlns="http://www.w3.org/2000/svg">
<path d="M5.51992 0.130005H6.63992L11.4899 12.03H10.1999L8.94992 8.91001H3.15992L1.89993 12.03H0.669922L5.51992 0.130005ZM8.47993 7.71L6.06992 1.69001L3.63992 7.71H8.47993Z" fill="black"/>
<path d="M17.5293 0.220001H21.2193C22.0493 0.220001 22.8093 0.370002 23.5093 0.670002C24.1993 0.970002 24.7993 1.38 25.2993 1.91C25.7993 2.44 26.1893 3.06 26.4593 3.78C26.7293 4.49 26.8693 5.27 26.8693 6.1V6.13C26.8693 6.96 26.7293 7.74 26.4593 8.46C26.1893 9.18 25.7993 9.8 25.2993 10.33C24.7993 10.86 24.1993 11.28 23.5093 11.58C22.8193 11.88 22.0493 12.04 21.2193 12.04H17.5293V0.220001ZM21.2193 10.8C21.8893 10.8 22.4993 10.68 23.0393 10.45C23.5893 10.21 24.0493 9.89 24.4293 9.47C24.8093 9.05 25.0993 8.56 25.3093 7.99C25.5193 7.42 25.6193 6.81 25.6193 6.16V6.13C25.6193 5.48 25.5193 4.87 25.3093 4.3C25.0993 3.73 24.8093 3.24 24.4293 2.82C24.0493 2.4 23.5893 2.07 23.0393 1.82C22.4893 1.58 21.8893 1.46 21.2193 1.46H18.7293V10.81H21.2193V10.8Z" fill="black"/>
<path d="M32.4492 0.220001H33.7892L37.5692 10.4L41.3692 0.220001H42.6592L38.0892 12.12H37.0292L32.4492 0.220001Z" fill="black"/>
<path d="M48.8105 0.220001H50.0106V12.03H48.8105V0.220001Z" fill="black"/>
<path d="M60.7306 12.2C59.8806 12.2 59.1006 12.05 58.4006 11.74C57.7006 11.43 57.0306 10.96 56.3906 10.31L57.1306 9.33C57.6906 9.89 58.2506 10.31 58.8206 10.59C59.3906 10.87 60.0406 11 60.7806 11C61.5006 11 62.0706 10.81 62.5006 10.43C62.9306 10.05 63.1506 9.57 63.1506 8.99V8.96C63.1506 8.69 63.1106 8.45 63.0306 8.23C62.9506 8.01 62.8106 7.81 62.6006 7.63C62.4006 7.45 62.1206 7.29 61.7506 7.14C61.3906 6.99 60.9306 6.85 60.3706 6.72C59.7606 6.57 59.2306 6.41 58.7806 6.21C58.3306 6.02 57.9606 5.79 57.6606 5.52C57.3706 5.25 57.1506 4.93 57.0106 4.57C56.8706 4.21 56.8006 3.79 56.8006 3.3V3.27C56.8006 2.81 56.8906 2.38 57.0606 1.99C57.2306 1.6 57.4706 1.26 57.7906 0.970003C58.1006 0.680003 58.4706 0.460005 58.9006 0.290005C59.3306 0.130005 59.7906 0.0500031 60.3006 0.0500031C61.0806 0.0500031 61.7606 0.170004 62.3406 0.410004C62.9206 0.650004 63.4906 1.02 64.0306 1.5L63.3306 2.53C62.8306 2.08 62.3406 1.75 61.8306 1.55C61.3306 1.35 60.8006 1.25 60.2606 1.25C59.5606 1.25 59.0106 1.43 58.6006 1.8C58.2006 2.17 57.9906 2.62 57.9906 3.16V3.19C57.9906 3.47 58.0306 3.72 58.1106 3.94C58.1906 4.16 58.3406 4.36 58.5506 4.55C58.7606 4.74 59.0606 4.9 59.4306 5.06C59.8006 5.22 60.2906 5.36 60.8706 5.49C62.0506 5.78 62.9306 6.19 63.4906 6.71C64.0506 7.23 64.3306 7.94 64.3306 8.84V8.87C64.3306 9.38 64.2406 9.83 64.0606 10.25C63.8806 10.66 63.6306 11.01 63.3206 11.3C63.0006 11.59 62.6206 11.82 62.1806 11.98C61.7406 12.12 61.2606 12.2 60.7306 12.2Z" fill="black"/>
<path d="M70.7402 0.220001H78.4302V1.42H71.9402V5.49H77.7402V6.69H71.9402V10.84H78.5002V12.04H70.7402V0.220001Z" fill="black"/>
<path d="M84.8691 0.220001H89.4391C90.0991 0.220001 90.6791 0.320003 91.1891 0.530003C91.6991 0.740003 92.1192 1.03 92.4592 1.4C92.7192 1.69 92.9292 2.04 93.0692 2.43C93.2092 2.82 93.2791 3.26 93.2791 3.73V3.76C93.2791 4.26 93.2092 4.7 93.0692 5.08C92.9292 5.47 92.7291 5.81 92.4691 6.09C92.2091 6.38 91.9091 6.61 91.5491 6.8C91.1991 6.99 90.8091 7.12 90.3991 7.2L93.6691 12.03H92.1991L89.1191 7.44H89.0891H86.0791V12.03H84.8792V0.220001H84.8691ZM89.3391 6.24C89.7391 6.24 90.0991 6.18 90.4391 6.07C90.7691 5.96 91.0591 5.8 91.3091 5.59C91.5491 5.38 91.7392 5.13 91.8792 4.83C92.0192 4.53 92.0891 4.19 92.0891 3.81V3.78C92.0891 3.05 91.8491 2.48 91.3691 2.07C90.8891 1.66 90.2191 1.45 89.3591 1.45H86.0692V6.24H89.3391Z" fill="black"/>
<path d="M112.561 12.22C111.901 12.22 111.301 12.11 110.761 11.89C110.221 11.67 109.751 11.34 109.361 10.91C108.971 10.48 108.671 9.94001 108.461 9.30001C108.251 8.66001 108.141 7.92001 108.141 7.09001V0.220007H109.341V7.00001C109.341 8.28001 109.631 9.27001 110.201 9.95001C110.771 10.64 111.571 10.98 112.591 10.98C113.571 10.98 114.351 10.65 114.931 10C115.511 9.35001 115.801 8.37001 115.801 7.08001V0.210007H117.001V6.98001C117.001 7.85001 116.891 8.61001 116.681 9.26001C116.471 9.91001 116.171 10.46 115.781 10.9C115.391 11.34 114.921 11.67 114.381 11.89C113.831 12.11 113.221 12.22 112.561 12.22Z" fill="#00A1E4"/>
<path d="M123.78 0.220001H124.9L131.6 9.69V0.220001H132.77V12.03H131.81L124.94 2.34V12.03H123.77V0.220001H123.78Z" fill="#00A1E4"/>
<path d="M139.83 0.220001H141.03V12.03H139.83V0.220001Z" fill="#00A1E4"/>
<path d="M147.189 0.220001H148.529L152.309 10.4L156.109 0.220001H157.399L152.829 12.12H151.769L147.189 0.220001Z" fill="#00A1E4"/>
<path d="M163.439 0.220001H171.129V1.42H164.639V5.49H170.439V6.69H164.639V10.84H171.199V12.04H163.439V0.220001Z" fill="#00A1E4"/>
<path d="M177.561 0.220001H182.131C182.791 0.220001 183.371 0.320003 183.881 0.530003C184.391 0.740003 184.811 1.03 185.151 1.4C185.411 1.69 185.621 2.04 185.761 2.43C185.901 2.82 185.971 3.26 185.971 3.73V3.76C185.971 4.26 185.901 4.7 185.761 5.08C185.621 5.47 185.421 5.81 185.161 6.09C184.901 6.38 184.601 6.61 184.241 6.8C183.891 6.99 183.501 7.12 183.091 7.2L186.361 12.03H184.891L181.811 7.44H181.781H178.771V12.03H177.571V0.220001H177.561ZM182.041 6.24C182.441 6.24 182.801 6.18 183.141 6.07C183.471 5.96 183.761 5.8 184.011 5.59C184.251 5.38 184.441 5.13 184.581 4.83C184.721 4.53 184.791 4.19 184.791 3.81V3.78C184.791 3.05 184.551 2.48 184.071 2.07C183.591 1.66 182.921 1.45 182.061 1.45H178.771V6.24H182.041Z" fill="#00A1E4"/>
<path d="M196.16 12.2C195.31 12.2 194.53 12.05 193.83 11.74C193.13 11.43 192.46 10.96 191.82 10.31L192.56 9.33C193.12 9.89 193.68 10.31 194.25 10.59C194.82 10.87 195.47 11 196.21 11C196.93 11 197.5 10.81 197.93 10.43C198.36 10.05 198.58 9.57 198.58 8.99V8.96C198.58 8.69 198.54 8.45 198.46 8.23C198.38 8.01 198.24 7.81 198.03 7.63C197.83 7.45 197.55 7.29 197.18 7.14C196.82 6.99 196.36 6.85 195.8 6.72C195.19 6.57 194.66 6.41 194.21 6.21C193.76 6.02 193.39 5.79 193.09 5.52C192.8 5.25 192.58 4.93 192.44 4.57C192.3 4.21 192.23 3.79 192.23 3.3V3.27C192.23 2.81 192.32 2.38 192.49 1.99C192.66 1.6 192.9 1.26 193.22 0.970003C193.53 0.680003 193.9 0.460005 194.33 0.290005C194.76 0.130005 195.22 0.0500031 195.73 0.0500031C196.51 0.0500031 197.19 0.170004 197.77 0.410004C198.35 0.650004 198.92 1.02 199.46 1.5L198.76 2.53C198.26 2.08 197.77 1.75 197.26 1.55C196.76 1.35 196.23 1.25 195.69 1.25C194.99 1.25 194.44 1.43 194.03 1.8C193.63 2.17 193.42 2.62 193.42 3.16V3.19C193.42 3.47 193.46 3.72 193.54 3.94C193.62 4.16 193.77 4.36 193.98 4.55C194.19 4.74 194.49 4.9 194.86 5.06C195.23 5.22 195.72 5.36 196.3 5.49C197.48 5.78 198.36 6.19 198.92 6.71C199.48 7.23 199.76 7.94 199.76 8.84V8.87C199.76 9.38 199.67 9.83 199.49 10.25C199.31 10.66 199.06 11.01 198.75 11.3C198.43 11.59 198.05 11.82 197.61 11.98C197.17 12.12 196.68 12.2 196.16 12.2Z" fill="#00A1E4"/>
<path d="M206.16 0.220001H213.85V1.42H207.36V5.49H213.16V6.69H207.36V10.84H213.92V12.04H206.16V0.220001Z" fill="#00A1E4"/>
</svg>
