<svg width="32" height="29" viewBox="0 0 32 29" fill="none" xmlns="http://www.w3.org/2000/svg">
<path d="M8.57023 16.68C9.1667 16.68 9.65023 16.1965 9.65023 15.6C9.65023 15.0035 9.1667 14.52 8.57023 14.52C7.97377 14.52 7.49023 15.0035 7.49023 15.6C7.49023 16.1965 7.97377 16.68 8.57023 16.68Z" fill="black"/>
<path d="M29.1122 21.6414C30.2713 21.6006 31.1786 20.6502 31.1388 19.5187C31.0989 18.3872 30.127 17.503 28.9679 17.5439C27.8088 17.5847 26.9014 18.535 26.9413 19.6666C26.9812 20.7981 27.9531 21.6822 29.1122 21.6414Z" fill="black"/>
<path d="M16.8795 24.36C17.6306 24.36 18.2395 23.7511 18.2395 23C18.2395 22.2489 17.6306 21.64 16.8795 21.64C16.1284 21.64 15.5195 22.2489 15.5195 23C15.5195 23.7511 16.1284 24.36 16.8795 24.36Z" fill="#00A1E4"/>
<path d="M25.4803 15.12C26.121 15.12 26.6403 14.6007 26.6403 13.96C26.6403 13.3194 26.121 12.8 25.4803 12.8C24.8397 12.8 24.3203 13.3194 24.3203 13.96C24.3203 14.6007 24.8397 15.12 25.4803 15.12Z" fill="#00A1E4"/>
<path d="M21.2202 19.6C21.7615 19.6 22.2002 19.1612 22.2002 18.62C22.2002 18.0788 21.7615 17.64 21.2202 17.64C20.679 17.64 20.2402 18.0788 20.2402 18.62C20.2402 19.1612 20.679 19.6 21.2202 19.6Z" fill="black"/>
<path d="M14.3698 28.36C9.47976 28.03 5.26976 25.27 3.15977 20.83C1.38977 17.12 1.40977 12.69 3.19977 8.99C7.08977 0.919997 18.6598 -1.96 25.3198 4.52C28.9398 8.04 30.2698 13.22 28.9998 18.08C28.9598 18.24 29.9398 18.6 29.9298 18.61C31.2698 13.47 29.6998 8.06 25.7198 4.53C22.5598 1.72 18.2698 0.119997 14.0298 0.469997C9.19976 0.869997 4.74976 3.72 2.47976 8.03C0.179765 12.4 0.439764 17.8 3.12976 21.94C5.74976 25.98 10.4898 28.58 15.2598 28.9C15.0998 28.88 14.6698 28.38 14.3698 28.36Z" fill="black"/>
<path d="M8.27883 4.57C11.2688 2.57 15.0188 1.9 18.5188 2.74C22.5588 3.72 25.7588 6.82 26.8088 10.83C28.3888 16.83 24.7988 23.16 18.9788 25.14C14.5688 26.64 9.67883 25.46 6.55883 21.95C6.49883 21.88 6.32883 21.85 6.29883 21.81C11.1888 27.3 20.0388 27.24 24.7388 21.49C29.4288 15.74 27.7188 7.08 21.1288 3.65C16.9988 1.5 11.8788 1.83 8.01883 4.41C8.02883 4.41 8.21883 4.61 8.27883 4.57Z" fill="black"/>
<path d="M11.6902 8.21999C13.4702 7.32999 15.6902 7.36 17.4502 8.31999C19.2802 9.32999 20.5502 11.21 20.7502 13.29C21.1002 17.01 18.0102 20.32 14.2602 20.18C11.6002 20.08 9.45016 18.26 8.72016 15.75C8.69016 15.65 8.43016 15.63 8.41016 15.57C9.62016 19.7 14.7102 21.73 18.3402 19.27C20.2002 18.01 21.2602 15.78 21.0702 13.54C20.9002 11.44 19.6502 9.61 17.8702 8.51C15.9102 7.3 13.4802 6.98 11.3802 8.03C11.4202 8.03 11.6202 8.25999 11.6902 8.21999Z" fill="black"/>
<path d="M15.9903 23.09C12.4503 23.84 8.45033 23.2 6.03033 20.29C4.22033 18.12 3.59033 15.18 4.30033 12.45C5.82033 6.6 12.3803 3.2 18.1203 4.4C22.3103 5.27 25.0803 8.89 25.0203 13.12C25.0203 13.34 25.9003 13.53 25.9003 13.62C26.0103 6.01 17.3603 2.11 10.8603 4.33C7.37033 5.52 4.37033 8.32999 3.43033 11.96C2.54033 15.38 3.79033 18.95 6.52033 21.15C9.44033 23.5 13.2203 24.36 16.8803 23.58C16.6903 23.63 16.2803 23.03 15.9903 23.09Z" fill="#00A1E4"/>
<path d="M21.4688 18.74C23.1388 16.39 23.5088 13.32 22.3688 10.65C21.3488 8.26 19.1688 6.48 16.7188 5.68C14.1188 4.83 11.1988 5.31 9.0388 7C6.7488 8.78 5.5488 11.7 5.9288 14.58C6.3388 17.74 8.5088 20.09 11.3188 21.39C11.4488 21.45 11.4388 21.42 11.3488 21.34C11.2188 21.22 11.0188 21.14 10.8588 21.06C8.2888 19.87 6.6788 17.01 6.5588 14.24C6.4588 11.86 7.4188 9.52 9.1488 7.89C10.8788 6.27 13.2688 5.46 15.6188 5.7C18.5588 6 20.9188 8.03 21.8788 10.79C22.7588 13.34 22.3188 16.15 20.7688 18.33C20.7588 18.38 21.4188 18.81 21.4688 18.74Z" fill="black"/>
</svg>
